<?xml version="1.0" standalone="no"?><!DOCTYPE svg PUBLIC "-//W3C//DTD SVG 1.1//EN" "http://www.w3.org/Graphics/SVG/1.1/DTD/svg11.dtd"><svg t="1783412046279" class="icon" viewBox="0 0 1024 1024" version="1.1" xmlns="http://www.w3.org/2000/svg" p-id="17144" xmlns:xlink="http://www.w3.org/1999/xlink" width="200" height="200"><path d="M502.613333 188.416c18.773333 0 34.133333-15.36 34.133334-34.133333V82.773333c0-18.773333-15.36-34.133333-34.133334-34.133333s-34.133333 15.36-34.133333 34.133333v71.509334a34.133333 34.133333 0 0 0 34.133333 34.133333zM740.181333 274.944c9.728 0 19.456-4.096 26.112-12.117333l45.909334-54.784a34.133333 34.133333 0 0 0-4.266667-48.128 34.133333 34.133333 0 0 0-48.128 4.266666l-45.909333 54.784a34.133333 34.133333 0 0 0 4.266666 48.128c6.485333 5.290667 14.336 7.850667 22.016 7.850667zM866.645333 493.909333c2.048 0 3.925333-0.170667 5.973334-0.512l70.485333-12.458666c18.602667-3.242667 30.890667-20.992 27.648-39.594667a34.133333 34.133333 0 0 0-39.594667-27.648l-70.485333 12.458667a34.133333 34.133333 0 0 0 5.973333 67.754666zM62.293333 480.938667l70.485334 12.458666a34.167467 34.167467 0 0 0 39.594666-27.648 34.133333 34.133333 0 0 0-27.648-39.594666l-70.485333-12.458667c-18.602667-3.242667-36.352 9.216-39.594667 27.648a34.133333 34.133333 0 0 0 27.648 39.594667zM238.933333 262.826667c6.826667 8.021333 16.384 12.117333 26.112 12.117333 7.68 0 15.530667-2.56 21.845334-8.021333a34.133333 34.133333 0 0 0 4.266666-48.128l-45.909333-54.784a34.133333 34.133333 0 0 0-48.128-4.266667 34.133333 34.133333 0 0 0-4.266667 48.128L238.933333 262.826667zM955.733333 907.093333H775.338667V559.616c0-150.357333-122.368-272.554667-272.554667-272.554667-150.357333 0-272.554667 122.368-272.554667 272.554667v347.306667H73.557333c-18.773333 0-34.133333 15.36-34.133333 34.133333s15.36 34.133333 34.133333 34.133333H955.733333c18.773333 0 34.133333-15.36 34.133334-34.133333s-15.36-33.962667-34.133334-33.962667z m-657.408 0V559.616c0-112.64 91.648-204.288 204.288-204.288s204.288 91.648 204.288 204.288v347.306667H298.325333z" p-id="17145" fill="#ffffff"></path></svg>