<?xml version="1.0" standalone="no"?><!DOCTYPE svg PUBLIC "-//W3C//DTD SVG 1.1//EN" "http://www.w3.org/Graphics/SVG/1.1/DTD/svg11.dtd"><svg t="1783598518076" class="icon" viewBox="0 0 1024 1024" version="1.1" xmlns="http://www.w3.org/2000/svg" p-id="6104" width="200" height="200" xmlns:xlink="http://www.w3.org/1999/xlink"><path d="M807.391672 249.435788c21.879284 0 32.818927 10.939642 32.818926 32.818927v459.499104c0 21.879284-10.939642 32.818927-32.818926 32.818926s-32.818927-10.939642-32.818927-32.818926V282.254715c0-21.879284 10.922576-32.818927 32.818927-32.818927zM413.530421 249.435788c21.896351 0 32.835993 10.939642 32.835993 32.818927v459.499104c0 21.879284-10.939642 32.818927-32.818927 32.818926s-32.818927-10.939642-32.818926-32.818926V282.254715c0-21.879284 10.922576-32.818927 32.818926-32.818927zM610.478113 249.435788c21.862218 0 32.80186 10.939642 32.80186 32.818927v459.499104c0 21.879284-10.922576 32.818927-32.818927 32.818926-21.879284 0-32.818927-10.939642-32.818926-32.818926V282.254715c0-21.879284 10.939642-32.818927 32.818926-32.818927zM216.616862 249.435788c21.879284 0 32.818927 10.939642 32.818926 32.818927v459.499104c0 21.879284-10.922576 32.818927-32.818926 32.818926-21.879284 0-32.818927-10.939642-32.818927-32.818926V282.254715c0-21.879284 10.939642-32.818927 32.818927-32.818927z" fill="#ffffff" p-id="6105"></path><path d="M0.008533 722.05905a39.389538 39.389538 0 1 1 78.762011 0v157.52402a65.671986 65.671986 0 0 0 65.654919 65.65492h157.524021A39.372472 39.372472 0 1 1 302.000683 1024H144.425463A144.41693 144.41693 0 0 1 0.008533 879.58307v-157.52402zM722.05905 1024a39.389538 39.389538 0 0 1-0.0512-78.76201h157.57522a65.671986 65.671986 0 0 0 65.65492-65.65492v-157.52402A39.389538 39.389538 0 1 1 1024 722.00785v157.57522A144.41693 144.41693 0 0 1 879.58307 1024h-157.52402zM1024 301.949484a39.372472 39.372472 0 1 1-78.76201 0.051199V144.425463a65.671986 65.671986 0 0 0-65.65492-65.654919h-157.52402a39.389538 39.389538 0 1 1 0-78.762011h157.52402A144.41693 144.41693 0 0 1 1024 144.425463v157.524021zM301.949484 0.008533a39.389538 39.389538 0 0 1 0 78.762011h-157.524021a65.671986 65.671986 0 0 0-65.654919 65.654919v157.524021a39.389538 39.389538 0 0 1-78.762011 0v-157.524021A144.399863 144.399863 0 0 1 144.425463 0.008533h157.524021z" fill="#ffffff" p-id="6106"></path></svg>