<?xml version="1.0" standalone="no"?><!DOCTYPE svg PUBLIC "-//W3C//DTD SVG 1.1//EN" "http://www.w3.org/Graphics/SVG/1.1/DTD/svg11.dtd"><svg t="1783411799311" class="icon" viewBox="0 0 1024 1024" version="1.1" xmlns="http://www.w3.org/2000/svg" p-id="5151" xmlns:xlink="http://www.w3.org/1999/xlink" width="200" height="200"><path d="M64.264653 353.443821 64.264653 110.658286c0 0-0.850367-45.656853 48.644907-47.790446l242.357793 0 0 53.763484L143.202493 116.209722c0 0-23.464411 3.413749-25.601074 23.038716 0 20.910239-0.427742 214.201523-0.427742 214.201523L64.264653 353.449961 64.264653 353.443821zM672.51581 62.652945l242.786559 0c0 0 45.656853-0.848321 47.788399 48.644907l0 242.36291-53.761438 0 0.426719-212.06486c0 0-3.412726-23.469528-23.042809-25.603121-20.911262 0-214.19743-0.427742-214.19743-0.427742L672.51581 62.652945 672.51581 62.652945zM64.264653 670.904103l0 242.785535c0 0-0.850367 45.656853 48.644907 47.790446l242.357793 0L355.267353 907.7166l-212.065883 0.427742c0 0-23.464411-3.413749-25.601074-23.042809 0-20.906146-0.427742-214.19743-0.427742-214.19743L64.264653 670.904103 64.264653 670.904103 64.264653 670.904103zM672.51581 961.696002l242.786559 0c0 0 45.656853 0.848321 47.788399-48.644907L963.090768 670.688185l-53.761438 0 0.426719 212.06486c0 0-3.412726 23.469528-23.042809 25.603121-20.911262 0-214.19743 0.427742-214.19743 0.427742L672.51581 961.696002 672.51581 961.696002zM64.264653 484.440317l898.825093 0 0 55.045687L64.264653 539.486004 64.264653 484.440317 64.264653 484.440317zM64.264653 484.440317M192.186114 193.773262l43.183522 0 0 636.304074-43.183522 0 0-636.304074ZM291.38951 193.773262l43.183522 0 0 636.304074-43.183522 0 0-636.304074ZM364.565113 193.773262l43.183522 0 0 636.304074-43.183522 0 0-636.304074ZM546.295084 193.773262l43.183522 0 0 636.304074-43.183522 0 0-636.304074ZM789.54827 193.773262l43.183522 0 0 636.304074-43.183522 0 0-636.304074ZM437.740716 193.773262l75.937506 0 0 636.304074-75.937506 0 0-636.304074ZM619.470687 193.773262l123.545804 0 0 636.304074-123.545804 0 0-636.304074Z" fill="#ffffff" p-id="5152"></path></svg>