<?xml version="1.0" standalone="no"?><!DOCTYPE svg PUBLIC "-//W3C//DTD SVG 1.1//EN" "http://www.w3.org/Graphics/SVG/1.1/DTD/svg11.dtd"><svg t="1783391770207" class="icon" viewBox="0 0 1066 1024" version="1.1" xmlns="http://www.w3.org/2000/svg" p-id="5446" xmlns:xlink="http://www.w3.org/1999/xlink" width="208.203125" height="200"><path d="M554.384 128a384 384 0 0 0-192 716.608l36.928 21.376-42.752 73.856-36.928-21.376A469.312 469.312 0 1 1 701.584 66.176l40.512 13.376-26.752 81.024-40.512-13.376a383.616 383.616 0 0 0-120.32-19.2z m383.168 60.352l-236.416 236.416a170.688 170.688 0 1 1-60.544-60.16L877.2 128l60.288 60.352z m49.28 136l13.376 40.512c15.296 46.336 23.488 95.808 23.488 147.136a469.12 469.12 0 0 1-234.432 406.4l-36.928 21.376-42.752-73.856 36.928-21.376A383.808 383.808 0 0 0 938.384 512c0-42.112-6.784-82.56-19.2-120.384l-13.44-40.512 81.088-26.752zM554.384 426.688a85.312 85.312 0 1 0 0 170.624 85.312 85.312 0 0 0 0-170.624z" p-id="5447" fill="#ffffff"></path></svg>