<?xml version="1.0" standalone="no"?><!DOCTYPE svg PUBLIC "-//W3C//DTD SVG 1.1//EN" "http://www.w3.org/Graphics/SVG/1.1/DTD/svg11.dtd"><svg t="1783391871399" class="icon" viewBox="0 0 1024 1024" version="1.1" xmlns="http://www.w3.org/2000/svg" p-id="5297" xmlns:xlink="http://www.w3.org/1999/xlink" width="200" height="200"><path d="M726.552381 633.904762a117.028571 117.028571 0 0 1 101.13219 175.957333l70.217143 70.217143-41.374476 41.374476-70.022095-69.997714A117.028571 117.028571 0 1 1 726.552381 633.904762zM316.952381 146.285714v97.52381a73.142857 73.142857 0 0 0 73.142857 73.142857h243.809524a73.142857 73.142857 0 0 0 73.142857-73.142857V146.285714h48.761905a73.142857 73.142857 0 0 1 73.142857 73.142857l0.024381 396.336762a170.666667 170.666667 0 0 0-185.465905 286.378667L268.190476 902.095238a73.142857 73.142857 0 0 1-73.142857-73.142857V219.428571a73.142857 73.142857 0 0 1 73.142857-73.142857h48.761905z m409.6 560.761905a43.885714 43.885714 0 1 0 0 87.771429 43.885714 43.885714 0 0 0 0-87.771429zM560.761905 536.380952h-219.428572v73.142858h219.428572v-73.142858z m121.904762-146.285714H341.333333v73.142857h341.333334v-73.142857zM585.142857 73.142857a73.142857 73.142857 0 0 1 73.142857 73.142857v48.761905a73.142857 73.142857 0 0 1-73.142857 73.142857h-146.285714a73.142857 73.142857 0 0 1-73.142857-73.142857V146.285714a73.142857 73.142857 0 0 1 73.142857-73.142857h146.285714z m0 73.142857h-146.285714v48.761905h146.285714V146.285714z" p-id="5298" fill="#ffffff"></path></svg>