<?xml version="1.0" standalone="no"?><!DOCTYPE svg PUBLIC "-//W3C//DTD SVG 1.1//EN" "http://www.w3.org/Graphics/SVG/1.1/DTD/svg11.dtd"><svg t="1783412026919" class="icon" viewBox="0 0 1024 1024" version="1.1" xmlns="http://www.w3.org/2000/svg" p-id="16027" xmlns:xlink="http://www.w3.org/1999/xlink" width="200" height="200"><path d="M129.464131 837.404714c-15.354995 15.201995-15.354995 40.133986 0 55.639981 15.353995 15.201995 40.284986 15.201995 55.639981 0 15.353995-15.505995 15.353995-40.437986 0-55.639981-15.354995-15.504995-40.285986-15.504995-55.639981 0z" p-id="16028" fill="#ffffff"></path><path d="M1010.72783 337.257885L685.859941 12.389996l-0.76-0.76c-15.505995-15.505995-40.437986-15.505995-55.791981 0l-352.07988 351.92688c-40.741986 41.045986-22.194992 97.293967-3.647999 153.236947 9.880997 30.09999 19.913993 60.352979 15.505995 71.298976-4.561998 11.399996-29.33999 22.953992-61.720979 38.308987-47.582984 22.193992-107.325963 50.317983-164.637943 107.782963-87.71597 87.56297-85.587971 241.406917 37.851987 282.148904 55.183981 18.089994 124.960957 6.079998 187.745935-56.703981l-0.151999-0.152c57.61598-57.46298 85.586971-117.05596 107.782963-164.485944 15.201995-32.379989 26.907991-57.15998 38.308987-61.720979 11.096996-4.408998 41.196986 5.472998 71.449975 15.657995v-0.151c55.942981 18.545994 112.190962 37.091987 152.932948-3.647999l351.31988-351.31988 0.76-0.759999c15.353995-15.354995 15.353995-40.285986 0-55.791981zM603.007969 689.489764c-6.536998 6.536998-39.828986-4.408998-72.817975-15.354994v-0.152c-43.629985-14.289995-87.10797-28.73199-125.112957-13.681996-39.981986 16.113994-57.46398 53.053982-80.114973 101.397966-19.609993 41.805986-44.389985 94.403968-92.276969 142.290951h-0.151999c-38.612987 38.612987-77.986973 47.277984-107.326964 37.549987-21.281993-6.993998-37.396987-23.107992-44.389985-44.390985-9.728997-29.33999-1.064-68.712977 37.549988-107.325963 48.189984-48.190984 100.636966-72.817975 142.137951-92.276968 48.342983-22.803992 85.435971-40.132986 101.549965-80.266973 15.201995-38.005987 0.608-81.634972-13.681995-125.113957-10.945996-33.139989-21.890993-66.128977-15.354995-72.664975l42.261986-42.565986 270.139907 270.141908-42.410985 42.413985z m75.857974-75.858974l-270.139908-269.987907 86.347971-86.347971c3.496999 8.359997 8.663997 16.265994 15.505994 22.954992l0.152 0.152c14.289995 14.441995 32.988989 21.586993 51.839983 21.586993 18.697994 0 37.547987-7.144998 51.989982-21.586993 2.129999-2.127999 5.016998-3.191999 7.905997-3.191999 6.232998 0 11.249996 4.864998 11.249996 11.249996 0 2.886999-1.064 5.623998-3.192999 7.904998v0.152h-0.151999l-1.52 1.671999a58.22998 58.22998 0 0 0-15.658995 39.677987c0 32.075989 26.451991 58.37598 58.52798 58.37598 14.897995 0 29.94899-5.623998 41.349986-17.025995h0.152l1.065-1.064999c4.864998-4.407998 11.096996-6.687998 17.481994-6.687998 14.593995 0 26.146991 11.704996 26.146991 26.298991 0 6.384998-2.279999 12.769996-6.687998 17.633994l-0.911999 0.912c-14.289995 14.289995-21.586993 33.139989-21.586993 51.991982 0 18.697994 7.296998 37.548987 21.586993 51.990982a80.209973 80.209973 0 0 0 12.161995 9.577997l-83.613971 83.760971z m119.336959-119.487959c-5.319998-0.76-10.489996-3.343999-14.441995-7.295997-5.168998-5.168998-7.752997-11.857996-7.752997-18.545994s2.583999-13.529995 7.752997-18.546994l1.368-1.519999c13.378995-14.289995 20.066993-32.379989 20.066993-50.470983 0-40.437986-32.987989-73.425975-73.424975-73.425975-18.090994 0-36.333988 6.688998-50.470983 19.914993l-1.519999 1.52v0.153c-2.129999 2.127999-5.016998 3.192999-8.057998 3.192999-6.079998 0-11.249996-5.169998-11.249996-11.249996 0-2.583999 0.912-5.472998 2.736999-7.449998l0.456-0.456 0.153-0.152c11.400996-11.553996 17.177994-26.451991 17.177994-41.349986 0-32.227989-26.451991-58.67998-58.52798-58.67998-14.897995 0-29.94799 5.929998-41.349986 17.329995-5.015998 5.016998-11.856996 7.753997-18.545993 7.753997-6.687998 0-13.529995-2.583999-18.698994-7.601998-5.015998-5.168998-7.600997-11.857996-7.600997-18.698993 0-6.687998 2.735999-13.529995 7.752997-18.697994 1.671999-1.824999 3.039999-3.800999 4.255999-5.776998L657.27995 95.088967l269.987908 270.139908-129.064956 128.913956z" p-id="16029" fill="#ffffff"></path></svg>