<?xml version="1.0" standalone="no"?><!DOCTYPE svg PUBLIC "-//W3C//DTD SVG 1.1//EN" "http://www.w3.org/Graphics/SVG/1.1/DTD/svg11.dtd"><svg t="1783408007142" class="icon" viewBox="0 0 1024 1024" version="1.1" xmlns="http://www.w3.org/2000/svg" p-id="8364" xmlns:xlink="http://www.w3.org/1999/xlink" width="200" height="200"><path d="M809.5 411.6l-17.1 17.1-24.1-2.4-33.6-3.3-25.5 25.5-18.2 18.3c3.6 14.4 5.7 29.3 5.7 44.7 0 101.9-82.9 184.8-184.8 184.8s-184.8-82.9-184.8-184.8S410 326.7 511.9 326.7c29.6 0 57.6 7.1 82.4 19.6l6.3-6.3 25.5-25.5-3.3-33.6-2.4-24.1 17.1-17.1 55-55C639 155 577.5 138 511.9 138c-206.3 0-373.6 167.3-373.6 373.6s167.3 373.6 373.6 373.6 373.6-167.3 373.6-373.6c0-51.8-11.2-100.7-30.3-145.5l-45.7 45.5z" fill="#ffffff" p-id="8365"></path><path d="M679.4 333.6l-42.6 42.6L587 426c-20.2-17.7-46.3-28.9-75.2-28.9-63.1 0-114.4 51.3-114.4 114.4S448.8 626 511.9 626s114.4-51.4 114.4-114.5c0-15.5-3.2-30.2-8.8-43.7l98-98 57.7 5.7 113.1-113.1-90.6-8.9-8.9-90.6-113 113 5.6 57.7z" fill="#ffffff" p-id="8366"></path></svg>