<?xml version="1.0" standalone="no"?><!DOCTYPE svg PUBLIC "-//W3C//DTD SVG 1.1//EN" "http://www.w3.org/Graphics/SVG/1.1/DTD/svg11.dtd"><svg t="1783392085634" class="icon" viewBox="0 0 1024 1024" version="1.1" xmlns="http://www.w3.org/2000/svg" p-id="8960" xmlns:xlink="http://www.w3.org/1999/xlink" width="200" height="200"><path d="M879.6 103.2H145.7c-24 0-43.4 19.4-43.4 43.4v730.8c0 23.9 19.4 43.3 43.4 43.3h699.4l-75.7-75.6c-1.9-1.9-3.5-3.9-5-6.1-48 32.6-104.6 50.1-164 50.1-78.2 0-151.7-30.5-207-85.8-55.3-55.3-85.8-128.8-85.8-207 0-78.2 30.5-151.7 85.8-207 55.3-55.3 128.8-85.8 207-85.8 78.2 0 151.7 30.5 207.1 85.8 55.3 55.3 85.8 128.8 85.8 207 0 70.4-24.7 136.9-69.9 189.8 0.9 0.7 1.7 1.5 2.6 2.3l96.3 96.3c0.4-2.4 0.7-4.9 0.7-7.4V146.5c-0.1-23.9-19.5-43.3-43.4-43.3zM396.5 270.4c-7.2 7.2-17.2 11.7-28.3 11.7h-122c-22.1 0-40-17.9-40-40 0-11 4.5-21 11.7-28.3s17.2-11.7 28.3-11.7h122.1c22.1 0 40 17.9 40 40-0.1 11.1-4.5 21.1-11.8 28.3z" p-id="8961" fill="#ffffff"></path><path d="M754.4 503.5H803c-35.3-76.6-112.8-129.9-202.5-129.9-122.8 0-222.8 100-222.8 222.8 0 122.9 100 222.8 222.8 222.8 83.2 0 155.9-45.9 194.2-113.6h-40.3c-22.1 0-40-17.9-40-40V543.5c0-22.1 17.9-40 40-40z m-175.5 162c0 22.1-17.9 40-40 40-11 0-21-4.5-28.3-11.7-7.2-7.2-11.7-17.2-11.7-28.3v-122c0-22.1 17.9-40 40-40 11 0 21 4.5 28.3 11.7 7.2 7.2 11.7 17.2 11.7 28.3v122z m111.5 0c0 22.1-17.9 40-40 40-11 0-21-4.5-28.3-11.7s-11.7-17.2-11.7-28.3v-122c0-22.1 17.9-40 40-40 11 0 21 4.5 28.3 11.7 7.2 7.2 11.7 17.2 11.7 28.3v122z" p-id="8962" fill="#ffffff"></path></svg>