<?xml version="1.0" standalone="no"?><!DOCTYPE svg PUBLIC "-//W3C//DTD SVG 1.1//EN" "http://www.w3.org/Graphics/SVG/1.1/DTD/svg11.dtd"><svg t="1783391992415" class="icon" viewBox="0 0 1024 1024" version="1.1" xmlns="http://www.w3.org/2000/svg" p-id="12342" xmlns:xlink="http://www.w3.org/1999/xlink" width="200" height="200"><path d="M1006.933333 332.8l-482.133333 277.333333c-8.533333 4.266667-21.333333 4.266667-29.866667 0L17.066667 332.8c-21.333333-12.8-21.333333-42.666667 0-51.2L499.2 4.266667c8.533333-4.266667 21.333333-4.266667 29.866667 0l482.133333 277.333333c17.066667 8.533333 17.066667 38.4-4.266667 51.2z" fill="#ffffff" p-id="12343"></path><path d="M989.866667 439.466667l-29.866667-12.8-85.333333 51.2 46.933333 25.6-409.6 230.4-409.6-230.4 46.933333-25.6-85.333333-55.466667-29.866667 17.066667c-21.333333 12.8-34.133333 38.4-34.133333 64s12.8 46.933333 34.133333 59.733333L477.866667 810.666667c12.8 4.266667 21.333333 8.533333 34.133333 8.533333 12.8 0 25.6-4.266667 34.133333-8.533333l439.466667-247.466667c21.333333-12.8 34.133333-34.133333 34.133333-59.733333s-8.533333-51.2-29.866666-64z" fill="#ffffff" p-id="12344"></path><path d="M989.866667 644.266667l-34.133334-21.333334-89.6 46.933334 59.733334 34.133333L512 938.666667l-409.6-230.4 46.933333-25.6-85.333333-51.2-25.6 17.066666c-25.6 8.533333-38.4 34.133333-38.4 59.733334s12.8 46.933333 34.133333 59.733333l439.466667 247.466667c12.8 4.266667 21.333333 8.533333 34.133333 8.533333s25.6-4.266667 34.133334-8.533333L989.866667 768c21.333333-12.8 34.133333-34.133333 34.133333-59.733333s-12.8-51.2-34.133333-64z" fill="#ffffff" p-id="12345"></path></svg>